<mxfile host="65bd71144e">
    <diagram id="kmR8ZYQWdbQFNXIIEx4o" name="ページ1">
        <mxGraphModel dx="427" dy="351" grid="1" gridSize="10" guides="1" tooltips="1" connect="1" arrows="1" fold="1" page="1" pageScale="1" pageWidth="827" pageHeight="1169" math="0" shadow="0">
            <root>
                <mxCell id="0"/>
                <mxCell id="1" parent="0"/>
                <mxCell id="2" value="一覧ページ&lt;br&gt;(検索機能追加)" style="rounded=0;whiteSpace=wrap;html=1;" parent="1" vertex="1">
                    <mxGeometry x="40" y="20" width="100" height="40" as="geometry"/>
                </mxCell>
                <mxCell id="3" value="ユーザーログインページ" style="rounded=0;whiteSpace=wrap;html=1;" parent="1" vertex="1">
                    <mxGeometry x="190" y="20" width="100" height="40" as="geometry"/>
                </mxCell>
                <mxCell id="4" value="ユーザー登録&lt;br&gt;ページ" style="rounded=0;whiteSpace=wrap;html=1;" parent="1" vertex="1">
                    <mxGeometry x="190" y="80" width="100" height="40" as="geometry"/>
                </mxCell>
                <mxCell id="5" value="ユーザー&lt;br&gt;マイページ" style="rounded=0;whiteSpace=wrap;html=1;" parent="1" vertex="1">
                    <mxGeometry x="190" y="140" width="100" height="40" as="geometry"/>
                </mxCell>
                <mxCell id="6" value="詳細ページ" style="rounded=0;whiteSpace=wrap;html=1;" parent="1" vertex="1">
                    <mxGeometry x="190" y="340" width="100" height="40" as="geometry"/>
                </mxCell>
                <mxCell id="7" value="投稿ページ" style="rounded=0;whiteSpace=wrap;html=1;" parent="1" vertex="1">
                    <mxGeometry x="190" y="200" width="100" height="40" as="geometry"/>
                </mxCell>
                <mxCell id="8" value="" style="endArrow=none;html=1;exitX=1;exitY=0.5;exitDx=0;exitDy=0;entryX=0;entryY=0.5;entryDx=0;entryDy=0;" parent="1" source="2" target="3" edge="1">
                    <mxGeometry width="50" height="50" relative="1" as="geometry">
                        <mxPoint x="140" y="50" as="sourcePoint"/>
                        <mxPoint x="180" y="40" as="targetPoint"/>
                    </mxGeometry>
                </mxCell>
                <mxCell id="11" value="" style="endArrow=none;html=1;" parent="1" edge="1">
                    <mxGeometry width="50" height="50" relative="1" as="geometry">
                        <mxPoint x="150" y="360" as="sourcePoint"/>
                        <mxPoint x="150" y="40" as="targetPoint"/>
                    </mxGeometry>
                </mxCell>
                <mxCell id="14" value="" style="endArrow=none;html=1;entryX=0;entryY=0.5;entryDx=0;entryDy=0;" parent="1" target="4" edge="1">
                    <mxGeometry width="50" height="50" relative="1" as="geometry">
                        <mxPoint x="150" y="100" as="sourcePoint"/>
                        <mxPoint x="200" y="50" as="targetPoint"/>
                    </mxGeometry>
                </mxCell>
                <mxCell id="15" value="" style="endArrow=none;html=1;entryX=0;entryY=0.5;entryDx=0;entryDy=0;" parent="1" edge="1">
                    <mxGeometry width="50" height="50" relative="1" as="geometry">
                        <mxPoint x="150" y="159.5" as="sourcePoint"/>
                        <mxPoint x="190" y="159.5" as="targetPoint"/>
                    </mxGeometry>
                </mxCell>
                <mxCell id="16" value="" style="endArrow=none;html=1;entryX=0;entryY=0.5;entryDx=0;entryDy=0;" parent="1" edge="1">
                    <mxGeometry width="50" height="50" relative="1" as="geometry">
                        <mxPoint x="150" y="219.5" as="sourcePoint"/>
                        <mxPoint x="190" y="219.5" as="targetPoint"/>
                    </mxGeometry>
                </mxCell>
                <mxCell id="18" value="" style="endArrow=none;html=1;entryX=0;entryY=0.5;entryDx=0;entryDy=0;" parent="1" edge="1">
                    <mxGeometry width="50" height="50" relative="1" as="geometry">
                        <mxPoint x="150" y="359.5" as="sourcePoint"/>
                        <mxPoint x="190" y="359.5" as="targetPoint"/>
                    </mxGeometry>
                </mxCell>
                <mxCell id="19" value="" style="endArrow=none;html=1;" parent="1" edge="1">
                    <mxGeometry width="50" height="50" relative="1" as="geometry">
                        <mxPoint x="290" y="359.5" as="sourcePoint"/>
                        <mxPoint x="330" y="359.5" as="targetPoint"/>
                    </mxGeometry>
                </mxCell>
                <mxCell id="21" value="編集ページ&lt;br&gt;（下書きページも）" style="rounded=0;whiteSpace=wrap;html=1;" parent="1" vertex="1">
                    <mxGeometry x="330" y="340" width="110" height="40" as="geometry"/>
                </mxCell>
                <mxCell id="22" value="" style="endArrow=none;html=1;" parent="1" edge="1">
                    <mxGeometry width="50" height="50" relative="1" as="geometry">
                        <mxPoint x="310" y="420" as="sourcePoint"/>
                        <mxPoint x="310" y="360" as="targetPoint"/>
                    </mxGeometry>
                </mxCell>
                <mxCell id="23" value="" style="endArrow=none;html=1;" parent="1" edge="1">
                    <mxGeometry width="50" height="50" relative="1" as="geometry">
                        <mxPoint x="310" y="420" as="sourcePoint"/>
                        <mxPoint x="340" y="420" as="targetPoint"/>
                    </mxGeometry>
                </mxCell>
                <mxCell id="24" value="削除完了ページ" style="rounded=0;whiteSpace=wrap;html=1;" parent="1" vertex="1">
                    <mxGeometry x="340" y="400" width="100" height="40" as="geometry"/>
                </mxCell>
            </root>
        </mxGraphModel>
    </diagram>
</mxfile>